<svg width="246" height="47" viewBox="0 0 246 47" fill="none" xmlns="http://www.w3.org/2000/svg">
<g clip-path="url(#clip0_718_4451)">
<path d="M43.9178 24.1991L21.8769 46.0653C21.6179 46.3223 21.268 46.4658 20.903 46.4658H1.38026C0.152854 46.4658 -0.461536 44.9939 0.406324 44.1329L20.4994 24.1991C21.038 23.6647 21.038 22.7997 20.4994 22.2667L0.407702 2.33285C-0.460159 1.47187 0.155609 0 1.38301 0H20.9057C21.2708 0 21.6221 0.143497 21.8797 0.400425L43.9178 22.2667C44.4551 22.801 44.4551 23.6661 43.9178 24.1991Z" fill="#F9B800"/>
<path d="M157.124 33.7362C155.837 33.2128 154.808 32.4393 154.038 31.4129C153.268 30.3879 152.862 29.1525 152.82 27.7079H158.58C158.664 28.5238 158.949 29.147 159.434 29.5761C159.919 30.0053 160.553 30.2198 161.332 30.2198C162.112 30.2198 162.766 30.0367 163.23 29.6704C163.695 29.3042 163.926 28.7972 163.926 28.148C163.926 27.6041 163.742 27.1545 163.372 26.7978C163.003 26.4424 162.55 26.1486 162.011 25.919C161.473 25.6894 160.708 25.427 159.716 25.1346C158.281 24.6959 157.11 24.2558 156.204 23.8158C155.296 23.3771 154.515 22.7279 153.862 21.8697C153.207 21.0114 152.881 19.8921 152.881 18.5105C152.881 16.4591 153.63 14.8533 155.128 13.6917C156.625 12.53 158.577 11.9492 160.982 11.9492C163.388 11.9492 165.402 12.53 166.9 13.6917C168.398 14.8533 169.199 16.4701 169.306 18.5419H163.451C163.408 17.8299 163.145 17.2709 162.66 16.8623C162.174 16.4537 161.553 16.25 160.794 16.25C160.139 16.25 159.612 16.4222 159.211 16.768C158.81 17.1138 158.609 17.6112 158.609 18.259C158.609 18.971 158.946 19.5259 159.621 19.9222C160.296 20.3199 161.352 20.749 162.786 21.2096C164.22 21.6906 165.385 22.1512 166.283 22.5912C167.18 23.0313 167.956 23.6695 168.608 24.5073C169.263 25.345 169.589 26.4219 169.589 27.7407C169.589 29.0595 169.267 30.1378 168.624 31.1628C167.98 32.1878 167.046 33.005 165.823 33.6118C164.6 34.2186 163.153 34.522 161.488 34.522C159.822 34.522 158.408 34.261 157.121 33.7376L157.124 33.7362Z" fill="#161617"/>
<path d="M177.973 11.9453V34.5195H172.352V11.9453H177.973Z" fill="#161617"/>
<path d="M196.485 19.2088C196.082 18.4722 195.503 17.9091 194.751 17.5196C193.997 17.1302 193.112 16.9361 192.094 16.9361C190.333 16.9361 188.923 17.5101 187.862 18.6567C186.801 19.8047 186.271 21.3353 186.271 23.25C186.271 25.2917 186.827 26.8866 187.942 28.0332C189.056 29.1812 190.588 29.7538 192.54 29.7538C193.876 29.7538 195.006 29.4176 195.929 28.7439C196.852 28.0701 197.525 27.1025 197.95 25.8397H191.044V21.8615H202.883V26.8811C202.479 28.2286 201.796 29.4805 200.83 30.638C199.865 31.7956 198.638 32.7331 197.155 33.4478C195.67 34.1639 193.993 34.522 192.127 34.522C189.92 34.522 187.953 34.0437 186.224 33.0857C184.494 32.1277 183.148 30.7965 182.182 29.0923C181.217 27.3868 180.734 25.4407 180.734 23.2513C180.734 21.062 181.217 19.1104 182.182 17.3953C183.148 15.6801 184.49 14.3436 186.207 13.3856C187.927 12.4275 189.888 11.9492 192.095 11.9492C194.769 11.9492 197.023 12.5915 198.858 13.8748C200.692 15.1595 201.907 16.9375 202.501 19.2102H196.487L196.485 19.2088Z" fill="#161617"/>
<path d="M225.995 34.5195H220.452L211.183 20.5961V34.5195H205.641V11.9453H211.183L220.452 25.9329V11.9453H225.995V34.5195Z" fill="#161617"/>
<path d="M233.046 33.7362C231.759 33.2128 230.73 32.4393 229.96 31.4129C229.19 30.3879 228.784 29.1525 228.742 27.7079H234.502C234.586 28.5238 234.871 29.147 235.356 29.5761C235.841 30.0053 236.474 30.2198 237.254 30.2198C238.034 30.2198 238.688 30.0367 239.152 29.6704C239.617 29.3042 239.848 28.7972 239.848 28.148C239.848 27.6041 239.663 27.1545 239.294 26.7978C238.925 26.4424 238.472 26.1486 237.933 25.919C237.395 25.6894 236.63 25.427 235.638 25.1346C234.203 24.6959 233.032 24.2558 232.125 23.8158C231.218 23.3771 230.438 22.7279 229.784 21.8697C229.129 21.0114 228.803 19.8921 228.803 18.5105C228.803 16.4591 229.551 14.8533 231.05 13.6917C232.547 12.53 234.499 11.9492 236.904 11.9492C239.309 11.9492 241.323 12.53 242.822 13.6917C244.32 14.8533 245.121 16.4701 245.227 18.5419H239.373C239.33 17.8299 239.067 17.2709 238.582 16.8623C238.097 16.4537 237.475 16.25 236.714 16.25C236.06 16.25 235.532 16.4222 235.131 16.768C234.73 17.1138 234.531 17.6112 234.531 18.259C234.531 18.971 234.868 19.5259 235.543 19.9222C236.218 20.3199 237.273 20.749 238.707 21.2096C240.141 21.6906 241.307 22.1512 242.205 22.5912C243.102 23.0313 243.877 23.6695 244.532 24.5073C245.186 25.345 245.513 26.4219 245.513 27.7407C245.513 29.0595 245.19 30.1378 244.547 31.1628C243.904 32.1878 242.97 33.005 241.746 33.6118C240.523 34.2186 239.077 34.522 237.411 34.522C235.746 34.522 234.331 34.261 233.044 33.7376L233.046 33.7362Z" fill="#161617"/>
<path d="M78.9508 24.8888C79.7498 25.9069 80.1507 27.0699 80.1507 28.3778C80.1507 30.2638 79.4867 31.7602 78.1574 32.8631C76.828 33.9673 74.9752 34.5195 72.5989 34.5195H62V11.9453H72.2421C74.5537 11.9453 76.3638 12.4715 77.6711 13.521C78.9784 14.572 79.6313 15.9974 79.6313 17.7973C79.6313 19.127 79.2801 20.2313 78.5775 21.1086C77.875 21.9874 76.941 22.5983 75.7742 22.9413C77.0925 23.2201 78.1505 23.8692 78.9508 24.8874V24.8888ZM67.5419 21.0786H71.1718C72.0796 21.0786 72.7766 20.8804 73.2615 20.4841C73.7478 20.0878 73.9903 19.5028 73.9903 18.732C73.9903 17.9613 73.7478 17.3709 73.2615 16.9636C72.7752 16.5564 72.0782 16.3527 71.1718 16.3527H67.5419V21.0799V21.0786ZM73.7809 29.4547C74.2878 29.0365 74.5427 28.4311 74.5427 27.6384C74.5427 26.8458 74.2782 26.224 73.7492 25.773C73.2188 25.3233 72.4901 25.0979 71.5616 25.0979H67.5419V30.082H71.6264C72.5548 30.082 73.2739 29.8729 73.7822 29.4547H73.7809Z" fill="#161617"/>
<path d="M88.6825 30.2747H95.9436V34.5195H83.1406V11.9453H88.6839V30.2747H88.6825Z" fill="#161617"/>
<path d="M104.239 11.9453V34.5195H98.6953V11.9453H104.239Z" fill="#161617"/>
<path d="M127.348 34.5195H121.805L112.535 20.5961V34.5195H106.992V11.9453H112.535L121.805 25.9329V11.9453H127.348V34.5195Z" fill="#161617"/>
<path d="M143.294 34.5195L135.645 24.5512V34.5195H130.102V11.9453H135.645V21.8494L143.23 11.9453H149.744L140.928 23.0069L150.068 34.5195H143.294Z" fill="#161617"/>
</g>
<defs>
<clipPath id="clip0_718_4451">
<rect width="245.515" height="46.4658" fill="white"/>
</clipPath>
</defs>
</svg>
